<?xml version="1.0" encoding="utf-8"?>
<!-- Generator: Adobe Adobe Illustrator 29.2.0, SVG Export Plug-In . SVG Version: 6.00 Build 0)  -->
<svg version="1.1" id="Layer_1" xmlns="http://www.w3.org/2000/svg" xmlns:xlink="http://www.w3.org/1999/xlink" x="0px" y="0px"
	 width="500px" height="500px" viewBox="0 0 500 500" style="enable-background:new 0 0 500 500;" xml:space="preserve">
<style type="text/css">
	.st0{fill:#12B886;}
	.st1{fill:#4C6EF5;}
	.st2{fill:#E64980;}
	.st3{opacity:0.5098;}
	.st4{fill:#DEE2E6;stroke:#12B886;stroke-width:3;stroke-miterlimit:10;}
	.st5{fill:#12B886;stroke:#12B886;stroke-width:3;stroke-miterlimit:10;}
	.st6{fill:#4C6EF5;stroke:#4C6EF5;stroke-miterlimit:10;}
	.st7{fill:#DEE2E6;stroke:#E64980;stroke-width:3;stroke-miterlimit:10;}
	.st8{fill:#E64980;stroke:#E64980;stroke-width:3;stroke-miterlimit:10;}
</style>
<path class="st0" d="M120,200v-60c0-2.76,2.24-5,5-5h250c2.76,0,5,2.24,5,5v60c0,2.76-2.24,5-5,5H125C122.24,205,120,202.76,120,200
	z"/>
<path class="st1" d="M120,360v-60c0-2.76,2.24-5,5-5h250c2.76,0,5,2.24,5,5v60c0,2.76-2.24,5-5,5H125C122.24,365,120,362.76,120,360
	z"/>
<path class="st2" d="M120,280v-60c0-2.76,2.24-5,5-5h250c2.76,0,5,2.24,5,5v60c0,2.76-2.24,5-5,5H125C122.24,285,120,282.76,120,280
	z"/>
<g>
	<g>
		<path class="st3" d="M390,310.12V365c0,5.52-4.48,10-10,10H120c-5.52,0-10-4.48-10-10V135c0-5.52,4.48-10,10-10h260
			c5.52,0,10,4.48,10,10v72.66l70-18.69V75c0-11.05-8.95-20-20-20H60c-11.05,0-20,8.95-20,20v350c0,11.05,8.95,20,20,20h380
			c11.05,0,20-8.95,20-20V291.43L390,310.12z"/>
	</g>
</g>
</svg>
